<svg xmlns="http://www.w3.org/2000/svg" width="581.25049" height="198.42676" viewBox="0 0 581.25049 198.42676">
  <path fill="#F7750B" d="M191.60547 196.59668h-.74072c-4.19873 0-7.34815-.89355-9.44825-2.67383-2.10156-1.78223-2.72998-4.87598-1.88916-9.2832l2.97168-15.00195c.88965-4.45508 2.65528-7.5625 5.29932-9.3213 2.64062-1.75488 6.0381-2.63574 10.1875-2.63574h.73926c4.19775 0 7.31054.89063 9.33642 2.66993 2.02784 1.78026 2.61866 4.87206 1.77735 9.27245l-2.9712 15.00488c-.8408 4.45898-2.55663 7.5703-5.14892 9.3291-2.59375 1.75684-5.96533 2.63965-10.11328 2.63965m9.6084-12.47754l2.7041-14.417c.49414-2.57128.28125-4.41308-.6377-5.52636-.91748-1.11133-2.62207-1.66894-5.10888-1.66894h-.89454c-5.07618 0-8.06202 2.39257-8.95606 7.18066l-2.79443 14.48633c-.4961 2.58203-.2837 4.44336.63818 5.58496.9165 1.1416 2.59766 1.71386 5.03858 1.71386h.89648c5.08058 0 8.1177-2.4502 9.11427-7.35352M215.02832 194.66504l6.45947-33.12305c.14843-.7422.64452-1.23536 1.48827-1.4834 3.51954-1.43848 7.51172-2.15528 11.9746-2.15528 4.3633 0 7.54982.87988 9.55568 2.64063 2.00635 1.75585 2.5669 4.86425 1.6748 9.32324l-4.9004 24.80468c-.0498.68945-.4243 1.03125-1.12157 1.03125h-3.88525c-.74756 0-1.04688-.34473-.896-1.0381l4.7788-24.57616c.54493-2.7246.4209-4.63282-.37157-5.72266-.79248-1.0918-2.54834-1.6367-5.2705-1.6367-2.9219 0-5.41847.37402-7.49903 1.12206l-6.08545 30.8086c-.14746.6963-.53907 1.04297-1.18164 1.04297h-3.83448c-.7417 0-1.03515-.34473-.88574-1.0381M270.35547 185.90234l8.2417-42.7041c.09912-.5996.46875-.92187 1.10742-.9746l4.05517-.44337c.34326-.0498.58935.01172.73925.18555.14746.17285.1714.45606.07276.85254l-8.21533 42.5625c-.4458 2.32812-.4458 3.8496 0 4.56934.4458.7168 1.5332 1.0752 3.2671 1.0752.24852 0 .65672-.02345 1.22752-.0752.5674-.0459.90235-.07325 1.00098-.07325.64453 0 .86524.32325.66895.9668l-.8916 2.96777c-.1001.5957-.49415.9668-1.1875 1.1162-.89307.14943-1.95557.22365-3.19288.22365-5.9829 0-8.27978-3.41602-6.89355-10.24903M292.53076 195.70605h-3.9121c-.73927 0-1.03516-.34765-.8833-1.041l6.5327-34.79884c.05176-.67577.45313-1.03417 1.20313-1.08495l4.33593-.43555c.42676-.04882.708 0 .83887.13965.1328.13672.17285.39453.125.76758l-7.13477 35.40723c-.1455.6963-.5166 1.0459-1.10547 1.0459m8.9297-44.4883H296.896c-.34375 0-.57325-.07518-.69825-.22362-.1211-.15332-.1621-.42676-.11132-.83008l.91992-4.88867c.14648-.6924.56836-1.03712 1.2627-1.03712h4.54003c.69336 0 .96485.2832.8164.85156l-.98632 4.88965c-.14746.8252-.5371 1.23827-1.1787 1.23827M304.29443 194.66504l6.45996-33.12305c.14843-.7422.6455-1.23536 1.49023-1.4834 3.51953-1.43848 7.51074-2.15528 11.97363-2.15528 4.36328 0 7.55078.87988 9.5547 2.64063 2.0078 1.75585 2.56737 4.86425 1.67382 9.32324l-4.9004 24.80468c-.04882.68945-.42187 1.03125-1.1211 1.03125h-3.88378c-.74707 0-1.04785-.34473-.89648-1.0381l4.77832-24.57616c.5459-2.7246.4209-4.63282-.37207-5.72266-.792-1.0918-2.54785-1.6367-5.26953-1.6367-2.92188 0-5.41797.37402-7.49805 1.12206l-6.08595 30.8086c-.14746.6963-.53808 1.04297-1.1826 1.04297h-3.83302c-.7422 0-1.03516-.34473-.8877-1.0381M342.09424 184.4912l2.9004-14.70507c.78612-4.1582 2.35936-7.21484 4.7246-9.17383 2.36133-1.95214 5.8828-2.93164 10.55762-2.93164h.81445c4.13673 0 7.12794.88477 8.9707 2.65723 1.84864 1.77343 2.44532 4.33202 1.79493 7.68456l-.2129 1.09473c-.69237 3.5449-1.9248 5.97948-3.70116 7.2998-1.77246 1.32323-4.75976 1.9834-8.9502 1.9834-3.1543 0-6.4121-.35743-9.76464-1.0752l-1.18653 6.18554c-.5869 2.97656-.4004 5.01367.5625 6.0996.96192 1.09376 2.8037 1.63868 5.52832 1.63868 3.7627 0 7.4258-.42187 10.99317-1.26074.39354-.05078.6533-.01465.7783.10938.1211.125.13575.33398.03712.63086l-.9668 3.19336c-.1494.6953-.59473 1.13964-1.3369 1.3379-1.98048.7451-4.97365 1.11327-8.98634 1.11327h-.7422c-4.5 0-7.80077-.86524-9.9121-2.5996-2.1084-1.7295-2.74316-4.82618-1.90234-9.28224m8.6377-15.02733l-.62794 3.2754c2.68653.7031 5.74805 1.05663 9.1875 1.05663 2.2383 0 3.8418-.3711 4.81348-1.11328.96777-.7422 1.6543-1.97852 2.05566-3.71485l.21875-1.03808c.34765-1.78126.08496-3.1299-.7881-4.04786-.87304-.91407-2.58202-1.375-5.125-1.375h-.4492c-2.74513 0-4.85353.5293-6.32618 1.59277-1.47266 1.06056-2.459 2.84962-2.959 5.36427"/>
  <path fill="#00E0AA" d="M330.21436 30.7339c.46875-4.96827.9336-9.68702 1.3545-14.41066.41893-4.73242.79686-9.4707 1.20995-14.40332h19.17384c-.46387 5.6089-.9082 11.14697-1.38965 16.6831-1.25685 14.36964-2.49318 28.74122-3.80177 43.1089-1.42383 15.60693-2.60156 31.24316-4.49316 46.79394-1.3252 10.88965-10.53516 19.27246-21.63965 19.83887-10.22363.52148-20.52246.54492-30.73438-.06836-12.09765-.72852-20.04345-9.67285-19.6826-21.86817.29735-9.98828 1.34618-19.96142 2.16795-29.92968.67968-8.2251 1.33837-16.45606 2.32958-24.64405 1.29737-10.72754 10.3091-19.7119 21.1587-20.4326 10.38964-.6919 20.8379-.48292 31.25878-.66554.9834-.01856 1.96583-.00244 3.0879-.00244m-24.49415 80.0708c.00197.1074.00685.2119.0088.31835 3.15528-.1797 6.3418-.1465 9.46387-.58496 5.79785-.81837 8.5918-4.03126 9.0127-9.83888.24218-3.32178.53418-6.6421.81054-9.96338.89357-10.79053 1.91408-21.57227 2.6426-32.37598.3994-5.9536-2.74903-9.31396-8.68458-9.51416-5.07617-.17382-10.16797-.1128-15.24707.04688-6.41113.20752-10.041 3.813-10.6172 10.28076-.79296 8.8789-1.58495 17.7539-2.33983 26.63428-.4414 5.2295-.9375 10.46093-1.17578 15.70215-.2539 5.63867 2.49707 8.7451 8.13183 9.25293 2.64454.24023 5.32813.042 7.99414.042M518.15283 48.68262c.5537-6.09473 1.083-11.88282 1.61817-17.7715.73437-.0703 1.29785-.1704 1.8584-.16844 11.01367.021 22.0293-.0664 33.04003.1294 6.97364.12646 13.56446 1.71044 18.708 6.94628 4.58986 4.6748 6.05763 10.5254 5.61818 16.78516-.87402 12.47607-2.01855 24.93212-3.11523 37.3916-.47656 5.39648-.89453 10.81054-1.70996 16.16015-1.6865 11.03125-10.5166 19.60254-21.65917 20.17774-10.29883.53223-20.6797.52345-30.97656-.06445-11.45313-.65234-19.1621-9.0459-19.5205-20.48535-.2666-8.4995-.15333-17.07568 2.4834-25.2588 3.25-10.09032 10.69042-15.67137 21.0244-16.57567 8.78223-.76758 17.6621-.4751 26.50098-.59814 5.04297-.07277 7.06738-1.55568 7.54687-5.71193.78028-6.75732-.60937-9.41748-5.86914-10.40918-2.59472-.49024-5.30273-.50782-7.95898-.52393-9.08594-.0586-18.17285-.02295-27.58887-.02295m39.3457 35.06787c-9.12402 0-18.02343-.2334-26.9004.0947-4.6328.1719-7.75877 3.49318-8.48924 8.13576-.5166 3.28076-.8086 6.63086-.8262 9.9497-.02538 5.1797 2.55666 8.43457 7.65236 8.709 6.3838.33886 12.82715.1289 19.21484-.3213 3.83985-.26856 6.9375-3.44434 7.4004-7.11035.81738-6.50683 1.32324-13.0503 1.94824-19.4575M234.40137 1.8296h19.1499c-.3672 4.4707-.70606 8.83593-1.08594 13.19872-1.28076 14.69678-2.58398 29.39063-3.86426 44.08496-1.1958 13.70117-2.3828 27.40186-3.54345 41.1045-.10547 1.23827-.0708 2.50195.03955 3.74218.30713 3.5371 2.3496 5.92188 5.85644 6.45215 2.94044.44727 5.93556.5342 9.15285.7998-.52344 5.7803-1.0459 11.5586-1.56397 17.31837-10.6333 3.04493-25.2251-2.03515-30.20898-10.52148-3.31202-5.64064-3.04395-11.8301-2.52784-18.001 1.21143-14.44823 2.51807-28.8916 3.7837-43.3364 1.43408-16.3589 2.8623-32.71583 4.2954-49.0718.16553-1.89403.33887-3.78808.5166-5.77M204.06934 128.8369h-19.2163c2.89696-32.728 5.7827-65.31053 8.67577-97.9702h19.20948c-2.89697 32.74023-5.77978 65.32275-8.66894 97.9702M196.09277 1.83398h19.16455c-.53466 6.05372-1.05468 11.96387-1.58837 17.9878h-19.20557c.54883-6.05908 1.08447-11.9712 1.6294-17.9878M149.6162 31.36377c-9.1406-.5581-18.3413-.7046-27.49364-.41016-14.8003.4761-24.11524 9.55665-25.41602 23.45753-.55127 5.8916-1.13476 11.78125-1.6289 17.6792-.32178 3.85938-.67823 7.71924-1.0288 11.5796h16.48778c1.05567.01757 1.97266.03368 2.70166.0459.66943-7.91505 1.50147-15.81544 2.12744-23.7339.57178-7.23388 4.1753-10.90332 11.45508-11.12207 4.584-.1411 9.18115-.21093 13.76416-.06836 6.83838.21192 9.84277 3.3247 9.37402 10.0674-.76025 10.895-1.82226 21.77147-2.75732 32.6533-.26514 3.0757-.55518 6.14698-.78906 9.2251-.4419 5.80176-3.31446 9.0547-9.06836 9.81153-3.04932.40137-6.1543.38476-9.7173.583-2.9414-.2002-6.36717-.27636-9.74657-.708-3.62988-.46387-6.02783-2.89063-5.95117-6.56836.12988-6.2417.6665-12.48242 1.1792-18.708.03076-.38038.06982-.75977.1035-1.13917-4.92235.76123-18.95653 2.9287-19.35106 2.94092h-.10547c-.56348 6.34277-1.07422 12.68652-1.33008 19.041-.51124 12.7793 7.70605 21.64845 20.49706 22.39064 9.396.54883 18.83643.41113 28.25586.57715.88477.01368 1.76953.00196 2.66114.00196-.30372 8.86523-3.083 12.1289-11.4204 12.5869-7.65334.42287-15.34035.25197-23.01173.32326-2.6582.02832-5.313.00488-8.2334.00488-.53955 5.9961-1.06006 11.7754-1.5757 17.51562 13.5762 0 26.86037.59668 40.06544-.17382 12.42188-.72852 20.45166-8.8623 22.35547-21.15137.99366-6.41406 1.3545-12.92383 1.94532-19.39746 1.13623-12.45313 2.27392-24.90625 3.32763-37.36817.80077-9.46484 1.8584-18.93652 2.0952-28.42138.30128-11.95703-7.8662-20.7876-19.771-21.51465M474.64893 110.45313c-4.1582-.1465-6.5586-2.68946-6.6797-6.9209-.08984-3.23438.21973-6.49366.49806-9.72803.2822-3.26172.56737-6.52002.8535-9.78418-4.9912.77344-18.88086 2.91504-19.27148 2.9292h-.2168c-.60645 7.1753-1.25977 14.3584-1.24023 21.53808.0283 10.2959 7.69627 18.4463 17.9873 19.40137 7.95897.7422 15.9873.7295 23.98534 1.03418.2207.0088.44824-.1543.80664-.29004.52246-5.81737 1.04492-11.64843 1.62598-18.12596-6.36133 0-12.36328.15625-18.34863-.0537"/>
  <path fill="#00E0AA" d="M109.80127 65.6245h-30.9336c.2998-3.72655.5796-7.45702.80665-11.18798.64062-10.52343-4.04737-18.06396-13.52198-21.5659-3.51562-1.29738-7.45947-1.86476-11.23047-1.96242-10.83984-.27636-21.68994-.14697-32.53808-.16748-.56984-.00244-1.14064.08448-1.93312.1465-.53564 5.8408-1.06396 11.6245-1.62744 17.7954h2.9756c8.34325 0 16.68846-.02832 25.03173.01855 2.4121.01416 4.86523.00977 7.22412.43848 5.50145.99902 6.94286 3.5747 6.1953 10.4165-.4668 4.25928-2.49072 5.72412-7.72217 5.79444-8.75537.11766-17.54834-.15968-26.25586.5874-10.33594.8872-17.79492 6.43407-21.0791 16.5078-2.66406 8.17578-2.7788 16.75293-2.51123 25.25732.36572 11.58106 8.13672 19.97168 19.6919 20.58887 10.21777.5459 20.5083.5625 30.729.05273 11.1245-.56153 20.13525-9.1504 21.71533-20.11133 1.04492-7.25195 1.59668-14.58057 2.24463-21.8877.08105-.8916.16016-1.7832.2412-2.67578h30.02735l2.47022-18.0454zM56.2578 103.00196c-.46044 3.80176-3.52098 7.04102-7.47997 7.3213-6.3833.45116-12.82617.65722-19.20947.3086-5.09522-.28322-7.6538-3.55763-7.61182-8.74122.02686-3.3213.30908-6.6709.8296-9.9546.7368-4.62255 3.86816-7.92138 8.52245-8.0952 8.87695-.33253 17.7749-.0967 26.8623-.0967-.61817 6.35694-1.13233 12.82472-1.9131 19.25782M473.97217 30.74414c.58008-7.21826 1.13476-14.1338 1.69922-21.1377h-19.1426c-1.0371 11.9497-2.05468 23.7456-3.08202 35.53956-.584 6.729-1.1875 13.4541-1.78028 20.18066h-16.68554c.2871-3.64404.56152-7.28955.77636-10.93945.4668-7.84618-2.0078-14.63232-8.85937-19.25976-4.7412-3.20068-10.13965-4.1836-15.6797-4.26416-10.9287-.1587-21.86132-.10107-32.79003-.1206-.5664-.00293-1.13183.09277-1.88965.16015-.5371 5.86524-1.06543 11.6538-1.625 17.78125 1.292 0 2.28418-.0044 3.27442 0 9.92577.04346 19.8584.03662 29.78417.16846 2.86133.03906 5.8379.51953 7.45508 3.25146 1.9785 3.3413 1.4453 6.99512.04004 10.3418-1.23244 2.94727-4.18263 2.85596-6.89748 2.90186-8.7539.14013-17.55175-.16114-26.2539.59668-10.33496.90136-17.78125 6.46337-21.0459 16.54638-2.6504 8.1787-2.76367 16.75586-2.49707 25.25928.36328 11.45898 8.03418 19.84863 19.49023 20.51367 10.29688.5996 20.6748.59473 30.97657.07324 11.13867-.56737 20.07812-9.13768 21.6748-20.15038 1.04785-7.2539 1.59668-14.58056 2.2461-21.8877.07226-.81396.14746-1.63085.21777-2.4458l17.6875-.1831h15.66113c1.0166.01758 1.90625.03174 2.62012.04395 1.0205-11.61182 2.06543-23.29248 3.13183-35.2964h25.90723c.5586-5.98485 1.09473-11.67675 1.65527-17.67333h-26.06933zm-61.59375 72.05176c-.46875 3.95898-3.4756 7.23926-7.55078 7.53125-6.38477.45605-12.8291.6543-19.21192.29394-5.08398-.28614-7.6211-3.584-7.57226-8.77247.03125-3.2412.31152-6.50195.80664-9.70703.7373-4.79346 3.81054-8.1172 8.59277-8.3042 8.8047-.34326 17.63574-.09668 26.8164-.09668-.61132 6.3081-1.12988 12.69434-1.88085 19.05518"/>
</svg>
